<?xml version="1.0" encoding="UTF-8"?>
<svg xmlns="http://www.w3.org/2000/svg" xmlns:xlink="http://www.w3.org/1999/xlink" width="850.39pt" height="147.73pt" viewBox="0 0 850.39 147.73" version="1.1">
<defs>
<clipPath id="clip1">
  <path d="M 0 3 L 850.390625 3 L 850.390625 147 L 0 147 Z M 0 3 "/>
</clipPath>
</defs>
<g id="surface1">
<g clip-path="url(#clip1)" clip-rule="nonzero">
<path style=" stroke:none;fill-rule:nonzero;fill:rgb(0%,0%,0%);fill-opacity:1;" d="M 0 14.929688 L 0 19.835938 L 850.394531 19.835938 L 850.394531 3.359375 Z M 718.269531 146.589844 L 850.394531 79.09375 L 850.394531 56.308594 "/>
</g>
<path style="fill:none;stroke-width:25.64;stroke-linecap:butt;stroke-linejoin:miter;stroke:rgb(0%,0%,0%);stroke-opacity:1;stroke-miterlimit:4;" d="M -3607.460938 1278.940625 L 10027.109375 1464.448438 L 7182.695313 11.401562 L 9037.734375 1278.940625 Z M -3607.460938 1278.940625 " transform="matrix(0.1,0,0,-0.1,0,147.73)"/>
<path style=" stroke:none;fill-rule:nonzero;fill:rgb(0%,0%,0%);fill-opacity:1;" d="M -17.183594 71.863281 L 0.480469 54.972656 L 14.890625 40.90625 L 19.476563 36.144531 C 26.273438 36.21875 30.886719 36.253906 33.308594 36.253906 C 33.964844 36.253906 38.359375 36.21875 46.496094 36.144531 L 13.9375 65.605469 L 7.714844 71.519531 L 9.710938 78.070313 L 22.039063 111.738281 L 8.546875 111.625 C 5.617188 111.625 0.640625 111.65625 -6.382813 111.738281 C -8.273438 102.765625 -11.875 89.46875 -17.183594 71.863281 M -57.609375 111.738281 C -54.71875 104.828125 -52.410156 99.109375 -50.675781 94.570313 C -47.574219 86.519531 -43.496094 75.503906 -38.429688 61.507813 C -34.902344 51.757813 -32.507813 44.894531 -31.246094 40.90625 L -29.738281 36.144531 C -23.597656 36.21875 -19.363281 36.253906 -17.035156 36.253906 C -15.484375 36.253906 -11.484375 36.21875 -5.035156 36.144531 L -20.742188 77.519531 L -32.90625 111.738281 L -44.890625 111.625 C -46.589844 111.625 -50.828125 111.65625 -57.609375 111.738281 "/>
<path style=" stroke:none;fill-rule:nonzero;fill:rgb(0%,0%,0%);fill-opacity:1;" d="M 57.710938 111.738281 C 69.167969 82.089844 77.429688 59.273438 82.480469 43.289063 L 84.691406 36.144531 C 91.128906 36.21875 95.4375 36.253906 97.617188 36.253906 C 98.613281 36.253906 102.59375 36.21875 109.5625 36.144531 C 106.273438 44.449219 103.246094 52.316406 100.496094 59.734375 C 96.710938 70.078125 93.285156 79.734375 90.21875 88.71875 C 87.15625 97.714844 84.621094 105.382813 82.609375 111.738281 L 71.328125 111.625 C 69.121094 111.625 64.578125 111.65625 57.710938 111.738281 "/>
<path style=" stroke:none;fill-rule:nonzero;fill:rgb(0%,0%,0%);fill-opacity:1;" d="M 96.238281 111.738281 L 101.003906 100.105469 L 115.597656 60.679688 L 121.222656 44.78125 L 123.953125 36.144531 C 129.660156 36.21875 134.710938 36.253906 139.109375 36.253906 C 142.246094 36.253906 146.671875 36.21875 152.390625 36.144531 L 162.398438 79.171875 L 163.652344 85.5 C 166.007813 79.289063 169.160156 70.578125 173.113281 59.378906 C 177.0625 48.175781 179.71875 40.429688 181.074219 36.144531 C 185.597656 36.21875 189.226563 36.253906 191.96875 36.253906 C 193.226563 36.253906 196.859375 36.21875 202.878906 36.144531 L 196.324219 52.648438 L 179.316406 98.5 L 174.792969 111.738281 C 170.027344 111.65625 165.558594 111.625 161.398438 111.625 C 157.933594 111.625 153.132813 111.65625 146.992188 111.738281 C 146.222656 108.109375 145.632813 105.492188 145.230469 103.863281 L 140.941406 88.066406 C 139.515625 82.882813 138.265625 77.925781 137.179688 73.203125 C 136.433594 70.207031 135.71875 66.917969 135.050781 63.332031 L 125.585938 89.613281 L 118.03125 111.738281 C 113.492188 111.65625 110.03125 111.625 107.640625 111.625 C 105.613281 111.625 101.8125 111.65625 96.238281 111.738281 "/>
<path style=" stroke:none;fill-rule:nonzero;fill:rgb(0%,0%,0%);fill-opacity:1;" d="M 218.273438 95.296875 C 220.226563 95.527344 222.3125 95.640625 224.53125 95.640625 C 228.296875 95.640625 231.757813 95.308594 234.921875 94.640625 C 238.085938 93.980469 241.125 92.554688 244.046875 90.375 C 246.976563 88.191406 249.515625 85.382813 251.667969 81.960938 C 253.820313 78.539063 255.464844 75.023438 256.601563 71.4375 C 257.992188 67.03125 258.375 63.320313 257.746094 60.304688 C 257.113281 57.285156 255.671875 55.183594 253.410156 54.007813 C 251.152344 52.820313 247.753906 52.226563 243.226563 52.226563 C 240.574219 52.226563 237.386719 52.394531 233.664063 52.746094 Z M 189.191406 111.898438 C 192.65625 103.480469 195.335938 96.742188 197.226563 91.6875 C 200.042969 84.164063 203.570313 74.414063 207.789063 62.445313 C 211.011719 53.296875 213.253906 46.742188 214.5 42.789063 L 216.550781 36.308594 C 220.828125 36.421875 224.535156 36.480469 227.667969 36.480469 C 230.691406 36.480469 234.683594 36.394531 239.640625 36.226563 C 244.597656 36.0625 249.234375 35.976563 253.546875 35.976563 C 258.484375 35.976563 262.722656 36.277344 266.265625 36.867188 C 269.804688 37.457031 272.890625 38.675781 275.535156 40.523438 C 278.175781 42.367188 280.109375 44.785156 281.34375 47.777344 C 282.570313 50.765625 283.121094 54.265625 283.003906 58.269531 C 282.878906 62.273438 282.144531 66.402344 280.804688 70.644531 C 279.484375 74.820313 277.769531 78.84375 275.664063 82.6875 C 273.558594 86.554688 271.222656 90.035156 268.65625 93.128906 C 266.089844 96.226563 263.394531 98.898438 260.570313 101.132813 C 257.746094 103.363281 254.71875 105.273438 251.488281 106.859375 C 249.085938 108.046875 246.75 108.964844 244.476563 109.632813 C 242.199219 110.296875 239.210938 110.835938 235.507813 111.238281 C 231.386719 111.679688 226.796875 111.898438 221.757813 111.898438 L 199.46875 111.734375 C 197.367188 111.734375 193.941406 111.785156 189.191406 111.898438 "/>
<path style=" stroke:none;fill-rule:nonzero;fill:rgb(0%,0%,0%);fill-opacity:1;" d="M 303.914063 35.449219 C 309.648438 35.527344 313.703125 35.5625 316.066406 35.5625 C 319.019531 35.5625 322.960938 35.527344 327.898438 35.449219 L 318.84375 59.003906 C 317.121094 63.4375 315.5625 67.59375 314.175781 71.476563 C 312.789063 75.355469 311.863281 78.035156 311.394531 79.511719 C 310.503906 82.324219 309.964844 84.667969 309.773438 86.554688 C 309.578125 88.429688 309.808594 90.035156 310.453125 91.335938 C 311.101563 92.660156 312.265625 93.640625 313.9375 94.308594 C 315.617188 94.96875 317.484375 95.300781 319.539063 95.300781 C 321.296875 95.300781 323.019531 95.058594 324.714844 94.582031 C 326.046875 94.179688 327.300781 93.632813 328.480469 92.929688 C 329.527344 92.269531 330.503906 91.5 331.410156 90.621094 C 332.503906 89.566406 333.605469 88.242188 334.695313 86.660156 C 335.75 85.171875 336.804688 83.222656 337.847656 80.847656 C 338.949219 78.429688 341.121094 72.933594 344.386719 64.355469 C 347.175781 57.050781 349.65625 50.367188 351.839844 44.296875 C 353.914063 38.402344 355.050781 35.449219 355.238281 35.449219 L 379.605469 35.449219 L 364.433594 74.742188 C 364.15625 75.480469 363.945313 76.089844 363.792969 76.570313 C 361.222656 84.246094 359.035156 89.660156 357.253906 92.808594 C 355.460938 95.964844 353.28125 98.707031 350.703125 101.027344 C 348.136719 103.351563 344.785156 105.445313 340.664063 107.300781 C 336.539063 109.171875 332.117188 110.488281 327.382813 111.265625 C 322.652344 112.03125 317.988281 112.429688 313.390625 112.429688 C 309.269531 112.429688 305.394531 112.125 301.753906 111.542969 C 298.410156 110.953125 295.496094 110.097656 293.019531 108.972656 C 290.542969 107.847656 288.496094 106.519531 286.878906 105.011719 C 285.410156 103.609375 284.390625 102.179688 283.824219 100.722656 C 283.253906 99.265625 282.996094 97.519531 283.046875 95.496094 C 283.105469 93.210938 283.554688 90.761719 284.386719 88.136719 C 284.664063 87.257813 285.121094 85.910156 285.761719 84.117188 C 286.398438 82.335938 287.371094 79.757813 288.691406 76.40625 L 292.195313 67.546875 C 293.109375 65.222656 294.382813 61.8125 296.027344 57.308594 "/>
<path style=" stroke:none;fill-rule:nonzero;fill:rgb(0%,0%,0%);fill-opacity:1;" d="M 364.484375 110.523438 C 366.480469 102.679688 367.921875 96.386719 368.796875 91.671875 C 372.335938 93.492188 375.597656 94.746094 378.59375 95.453125 C 381.582031 96.15625 384.296875 96.515625 386.71875 96.515625 C 389.921875 96.515625 392.609375 96.050781 394.796875 95.121094 C 396.980469 94.195313 398.363281 92.824219 398.9375 91.003906 C 399.136719 90.375 399.230469 89.777344 399.230469 89.203125 C 399.222656 88.640625 399.089844 87.984375 398.796875 87.269531 C 398.503906 86.554688 398.019531 85.769531 397.332031 84.914063 L 389.8125 75.847656 C 388.039063 73.78125 386.820313 72.292969 386.152344 71.367188 C 384.796875 69.492188 383.832031 67.738281 383.257813 66.117188 C 382.683594 64.496094 382.414063 62.84375 382.449219 61.167969 C 382.484375 59.488281 382.800781 57.710938 383.398438 55.828125 C 384.101563 53.582031 385.195313 51.378906 386.671875 49.21875 C 388.144531 47.0625 389.972656 45.046875 392.152344 43.164063 C 394.332031 41.285156 396.945313 39.664063 399.984375 38.300781 C 403.035156 36.9375 406.128906 36.003906 409.269531 35.507813 C 412.410156 35.011719 415.566406 34.757813 418.730469 34.757813 C 424.953125 34.757813 431.503906 35.449219 438.40625 36.835938 C 437.703125 39.382813 437.09375 41.71875 436.578125 43.84375 C 436.050781 45.96875 435.21875 49.6875 434.09375 54.996094 C 431.140625 53.644531 428.34375 52.699219 425.714844 52.164063 C 423.089844 51.632813 420.769531 51.367188 418.742188 51.367188 C 415.878906 51.367188 413.316406 51.910156 411.085938 52.980469 C 408.851563 54.058594 407.480469 55.398438 406.976563 56.988281 C 406.742188 57.726563 406.660156 58.445313 406.730469 59.144531 C 406.800781 59.851563 407.09375 60.667969 407.609375 61.609375 C 408.121094 62.546875 408.855469 63.582031 409.824219 64.707031 C 410.789063 65.828125 412.339844 67.5 414.46875 69.710938 L 417.441406 72.863281 C 418.308594 73.820313 419.210938 74.984375 420.136719 76.347656 C 421.066406 77.707031 421.8125 79.054688 422.386719 80.390625 C 422.960938 81.710938 423.335938 82.933594 423.523438 84.035156 C 423.703125 85.148438 423.746094 86.261719 423.644531 87.386719 C 423.546875 88.5 423.296875 89.707031 422.890625 91.003906 C 421.839844 94.324219 420.046875 97.480469 417.511719 100.480469 C 414.984375 103.488281 411.957031 105.960938 408.441406 107.894531 C 404.925781 109.828125 401.304688 111.1875 397.589844 111.960938 C 393.871094 112.722656 390.078125 113.121094 386.222656 113.121094 C 380.257813 113.121094 373.015625 112.253906 364.484375 110.523438 "/>
<path style=" stroke:none;fill-rule:nonzero;fill:rgb(0%,0%,0%);fill-opacity:1;" d="M 444.152344 111.738281 C 451.742188 93.773438 459.136719 73.992188 466.34375 52.40625 L 442.496094 53.09375 L 444.722656 46.949219 C 445.910156 43.660156 447.160156 40.0625 448.46875 36.144531 C 458.921875 36.21875 471.113281 36.253906 485.046875 36.253906 L 498.726563 36.203125 L 512 36.203125 L 519.207031 36.144531 L 517.15625 41.570313 C 516.089844 44.484375 515.226563 46.886719 514.566406 48.785156 C 513.910156 50.695313 513.429688 52.128906 513.125 53.09375 C 505.378906 52.636719 498.945313 52.40625 493.824219 52.40625 L 489.957031 52.40625 C 487.300781 58.941406 484.953125 64.972656 482.890625 70.5 C 479.941406 78.445313 477.183594 86.144531 474.582031 93.609375 C 471.984375 101.078125 469.960938 107.125 468.5 111.738281 C 462.5 111.65625 458.621094 111.625 456.855469 111.625 C 455.273438 111.625 451.046875 111.65625 444.152344 111.738281 "/>
<path style=" stroke:none;fill-rule:nonzero;fill:rgb(0%,0%,0%);fill-opacity:1;" d="M 499.105469 111.902344 C 501.851563 105.402344 504.253906 99.554688 506.316406 94.34375 C 508.367188 89.144531 510.621094 83.109375 513.089844 76.242188 C 515.5625 69.375 518.070313 62.128906 520.628906 54.503906 C 523.1875 46.882813 525.183594 40.816406 526.605469 36.308594 C 531.175781 36.421875 534.886719 36.480469 537.722656 36.480469 C 540.675781 36.480469 544.289063 36.394531 548.585938 36.226563 C 552.875 36.0625 557.027344 35.976563 561.054688 35.976563 C 565.765625 35.976563 569.910156 36.167969 573.476563 36.53125 C 576.160156 36.792969 578.507813 37.324219 580.519531 38.136719 C 582.527344 38.953125 584.121094 39.941406 585.308594 41.105469 C 586.492188 42.265625 587.363281 43.570313 587.9375 45.011719 C 588.519531 46.449219 588.78125 48.140625 588.742188 50.074219 C 588.699219 52.019531 588.324219 54.089844 587.632813 56.308594 C 586.847656 58.78125 585.796875 61.097656 584.492188 63.257813 C 583.179688 65.417969 581.550781 67.453125 579.605469 69.351563 C 577.660156 71.257813 575.445313 72.898438 572.964844 74.285156 C 570.488281 75.667969 567.171875 77.085938 563.027344 78.511719 L 563.6875 85.546875 C 563.878906 87.503906 564.113281 89.503906 564.394531 91.535156 L 566.679688 107.753906 C 566.789063 108.457031 566.941406 109.835938 567.144531 111.902344 C 561.066406 111.820313 556.976563 111.785156 554.878906 111.785156 C 552.21875 111.785156 547.839844 111.820313 541.765625 111.902344 C 541.777344 109.984375 541.835938 106.425781 541.917969 101.226563 C 541.976563 99.050781 541.976563 97.371094 541.90625 96.191406 C 541.847656 93.574219 541.695313 89.90625 541.449219 85.183594 L 540.683594 69.523438 C 542.550781 69.867188 544.4375 70.042969 546.335938 70.042969 C 549.007813 70.042969 551.5625 69.636719 554 68.820313 C 556.441406 68.007813 558.5 66.75 560.152344 65.042969 C 561.804688 63.339844 562.929688 61.546875 563.527344 59.65625 C 564.03125 58.066406 564.054688 56.664063 563.597656 55.460938 C 563.140625 54.257813 562.097656 53.367188 560.480469 52.769531 C 558.863281 52.175781 556.179688 51.878906 552.421875 51.878906 C 551.152344 51.878906 549.816406 51.910156 548.425781 51.964844 C 547.050781 52.019531 545.433594 52.066406 543.605469 52.101563 C 540.730469 59.679688 537.382813 68.917969 533.574219 79.816406 C 529.765625 90.710938 526.136719 101.40625 522.714844 111.902344 C 516.5625 111.820313 512.574219 111.785156 510.722656 111.785156 C 508.578125 111.785156 504.703125 111.820313 499.105469 111.902344 "/>
<path style=" stroke:none;fill-rule:nonzero;fill:rgb(0%,0%,0%);fill-opacity:1;" d="M 578.808594 111.738281 C 590.269531 82.089844 598.527344 59.273438 603.582031 43.289063 L 605.785156 36.144531 C 612.230469 36.21875 616.539063 36.253906 618.714844 36.253906 C 619.714844 36.253906 623.691406 36.21875 630.664063 36.144531 C 627.371094 44.449219 624.347656 52.316406 621.605469 59.734375 C 617.808594 70.078125 614.386719 79.734375 611.324219 88.71875 C 608.257813 97.714844 605.726563 105.382813 603.710938 111.738281 L 592.425781 111.625 C 590.222656 111.625 585.675781 111.65625 578.808594 111.738281 "/>
<path style=" stroke:none;fill-rule:nonzero;fill:rgb(0%,0%,0%);fill-opacity:1;" d="M 617.152344 111.738281 C 621.085938 102.210938 624.269531 94.242188 626.726563 87.808594 C 629.175781 81.398438 632.304688 72.851563 636.089844 62.199219 C 639.886719 51.550781 642.328125 44.484375 643.425781 41.015625 L 644.914063 36.144531 C 653.585938 36.21875 664.078125 36.253906 676.414063 36.253906 C 687.804688 36.253906 697.847656 36.21875 706.566406 36.144531 L 705.875 37.972656 C 705.691406 38.414063 705.09375 40.015625 704.082031 42.785156 L 701.839844 48.8125 C 701.351563 50.109375 700.90625 51.417969 700.484375 52.746094 C 693.476563 52.453125 687.570313 52.300781 682.753906 52.300781 C 677.46875 52.300781 673.882813 52.3125 672.03125 52.328125 C 670.167969 52.34375 667.238281 52.433594 663.265625 52.574219 L 658.695313 65.203125 C 662.972656 65.316406 667.976563 65.371094 673.71875 65.371094 C 675.769531 65.371094 681.246094 65.257813 690.164063 65.03125 C 688.3125 69.726563 686.1875 75.316406 683.808594 81.808594 C 677.46875 81.738281 672.582031 81.703125 669.148438 81.703125 C 664.066406 81.703125 658.332031 81.855469 651.945313 82.160156 L 647.046875 95.648438 L 653.402344 95.648438 C 655.285156 95.648438 659.1875 95.59375 665.117188 95.484375 L 676.640625 95.214844 C 678.347656 95.175781 681.230469 95.039063 685.289063 94.78125 C 683.117188 100.253906 680.960938 105.902344 678.820313 111.738281 C 669.863281 111.65625 660.03125 111.625 649.320313 111.625 L 625.015625 111.675781 "/>
<path style=" stroke:none;fill-rule:nonzero;fill:rgb(0%,0%,0%);fill-opacity:1;" d="M 691.664063 110.523438 C 693.664063 102.679688 695.105469 96.386719 695.972656 91.671875 C 699.511719 93.492188 702.78125 94.746094 705.769531 95.453125 C 708.765625 96.15625 711.476563 96.515625 713.902344 96.515625 C 717.101563 96.515625 719.785156 96.050781 721.976563 95.121094 C 724.160156 94.195313 725.546875 92.824219 726.125 91.003906 C 726.316406 90.375 726.417969 89.777344 726.410156 89.203125 C 726.40625 88.640625 726.265625 87.984375 725.972656 87.269531 C 725.6875 86.554688 725.199219 85.769531 724.507813 84.914063 L 716.996094 75.847656 C 715.214844 73.78125 714.003906 72.292969 713.335938 71.367188 C 711.980469 69.492188 711.015625 67.738281 710.445313 66.117188 C 709.871094 64.496094 709.601563 62.84375 709.632813 61.167969 C 709.664063 59.488281 709.980469 57.710938 710.574219 55.828125 C 711.28125 53.582031 712.378906 51.378906 713.855469 49.21875 C 715.332031 47.0625 717.148438 45.046875 719.335938 43.164063 C 721.507813 41.285156 724.121094 39.664063 727.167969 38.300781 C 730.214844 36.9375 733.308594 36.003906 736.449219 35.507813 C 739.589844 35.011719 742.742188 34.757813 745.90625 34.757813 C 752.132813 34.757813 758.691406 35.449219 765.582031 36.835938 C 764.890625 39.382813 764.28125 41.71875 763.757813 43.84375 C 763.230469 45.96875 762.40625 49.6875 761.273438 54.996094 C 758.316406 53.644531 755.527344 52.699219 752.894531 52.164063 C 750.277344 51.632813 747.945313 51.367188 745.921875 51.367188 C 743.054688 51.367188 740.496094 51.910156 738.265625 52.980469 C 736.027344 54.058594 734.65625 55.398438 734.15625 56.988281 C 733.917969 57.726563 733.835938 58.445313 733.917969 59.144531 C 733.988281 59.851563 734.28125 60.667969 734.785156 61.609375 C 735.300781 62.546875 736.039063 63.582031 737.007813 64.707031 C 737.972656 65.828125 739.519531 67.5 741.652344 69.710938 L 744.617188 72.863281 C 745.496094 73.820313 746.386719 74.984375 747.316406 76.347656 C 748.25 77.707031 749 79.054688 749.574219 80.390625 C 750.148438 81.710938 750.523438 82.933594 750.699219 84.035156 C 750.886719 85.148438 750.925781 86.261719 750.828125 87.386719 C 750.734375 88.5 750.476563 89.707031 750.066406 91.003906 C 749.023438 94.324219 747.230469 97.480469 744.699219 100.480469 C 742.160156 103.488281 739.144531 105.960938 735.628906 107.894531 C 732.105469 109.828125 728.492188 111.1875 724.765625 111.960938 C 721.050781 112.722656 717.265625 113.121094 713.398438 113.121094 C 707.445313 113.121094 700.191406 112.253906 691.664063 110.523438 "/>
</g>
</svg>
